<?xml version="1.0" encoding="UTF-8"?>
<!DOCTYPE svg PUBLIC "-//W3C//DTD SVG 1.1//EN" "http://www.w3.org/Graphics/SVG/1.1/DTD/svg11.dtd">
<svg xmlns="http://www.w3.org/2000/svg" version="1.1" width="2000px" height="2024px" style="shape-rendering:geometricPrecision; text-rendering:geometricPrecision; image-rendering:optimizeQuality; fill-rule:evenodd; clip-rule:evenodd" xmlns:xlink="http://www.w3.org/1999/xlink">
<g><path style="opacity:0.981" fill="#fb6867" d="M -0.5,6.5 C 666.167,6.5 1332.83,6.5 1999.5,6.5C 1999.5,248.167 1999.5,489.833 1999.5,731.5C 1985.83,731.5 1972.17,731.5 1958.5,731.5C 1958.5,504.167 1958.5,276.833 1958.5,49.5C 1319.17,49.5 679.833,49.5 40.5,49.5C 40.5,276.833 40.5,504.167 40.5,731.5C 26.8333,731.5 13.1667,731.5 -0.5,731.5C -0.5,489.833 -0.5,248.167 -0.5,6.5 Z"/></g>
<g><path style="opacity:0.993" fill="#fb6867" d="M -0.5,1099.5 C -0.5,1070.17 -0.5,1040.83 -0.5,1011.5C 30.8333,1011.5 62.1667,1011.5 93.5,1011.5C 91.0651,1027.49 97.3984,1037.99 112.5,1043C 122.833,1045 133.167,1045 143.5,1043C 156.292,1038.59 161.125,1029.75 158,1016.5C 156.212,1011.08 152.712,1007.25 147.5,1005C 142.909,1003.14 138.243,1001.47 133.5,1000C 112.087,996.051 90.7538,991.717 69.5,987C 31.6349,976.638 8.30156,952.472 -0.5,914.5C -0.5,897.167 -0.5,879.833 -0.5,862.5C 8.21343,830.608 27.8801,808.108 58.5,795C 85.4155,784.051 113.415,779.218 142.5,780.5C 178.191,779.628 212.857,785.128 246.5,797C 252.075,799.371 257.575,801.871 263,804.5C 263.5,831.831 263.667,859.165 263.5,886.5C 233.833,886.5 204.167,886.5 174.5,886.5C 176.5,871.312 170.167,861.812 155.5,858C 146.095,856.008 136.762,856.341 127.5,859C 117.503,862.826 113.669,869.993 116,880.5C 120.887,889.213 128.387,894.38 138.5,896C 157.414,900.383 176.414,904.383 195.5,908C 257.928,921.776 286.762,960.609 282,1024.5C 277.443,1066.72 255.276,1095.22 215.5,1110C 183.252,1120.1 150.252,1123.77 116.5,1121C 76.5723,1118.78 37.5723,1111.61 -0.5,1099.5 Z"/></g>
<g><path style="opacity:0.994" fill="#fb6867" d="M 533.5,780.5 C 598.054,775.9 639.554,804.566 658,866.5C 670.411,917.191 671.745,968.191 662,1019.5C 656.236,1049.53 642.736,1075.37 621.5,1097C 600.653,1114.01 576.653,1122.17 549.5,1121.5C 526.538,1122.1 505.871,1115.6 487.5,1102C 476.744,1094.58 467.244,1085.75 459,1075.5C 458.5,1099.16 458.333,1122.83 458.5,1146.5C 471.833,1146.5 485.167,1146.5 498.5,1146.5C 498.5,1178.5 498.5,1210.5 498.5,1242.5C 431.5,1242.5 364.5,1242.5 297.5,1242.5C 297.5,1210.5 297.5,1178.5 297.5,1146.5C 306.167,1146.5 314.833,1146.5 323.5,1146.5C 323.5,1059.17 323.5,971.833 323.5,884.5C 314.833,884.5 306.167,884.5 297.5,884.5C 297.5,852.5 297.5,820.5 297.5,788.5C 351.167,788.5 404.833,788.5 458.5,788.5C 458.333,801.171 458.5,813.838 459,826.5C 478.343,802.088 503.176,786.754 533.5,780.5 Z M 488.5,884.5 C 510.372,883.546 522.539,893.879 525,915.5C 525.943,941.202 525.61,966.869 524,992.5C 521.5,1005.67 513.667,1013.5 500.5,1016C 486.568,1019.06 474.735,1015.56 465,1005.5C 461.302,999.708 459.302,993.374 459,986.5C 458.333,962.5 458.333,938.5 459,914.5C 460.756,896.402 470.589,886.402 488.5,884.5 Z"/></g>
<g><path style="opacity:0.992" fill="#fb6867" d="M 807.5,780.5 C 826.503,780.333 845.503,780.5 864.5,781C 893.255,782.022 920.588,788.689 946.5,801C 976.276,819.004 993.109,845.504 997,880.5C 998.018,888.803 998.685,897.136 999,905.5C 999.5,942.498 999.667,979.498 999.5,1016.5C 1007.83,1016.5 1016.17,1016.5 1024.5,1016.5C 1024.5,1048.83 1024.5,1081.17 1024.5,1113.5C 972.833,1113.5 921.167,1113.5 869.5,1113.5C 869.667,1101.16 869.5,1088.83 869,1076.5C 832.642,1119.79 787.475,1132.29 733.5,1114C 709.079,1103.91 693.579,1086.08 687,1060.5C 675.252,999.821 698.085,958.321 755.5,936C 792.839,923.785 831.172,917.951 870.5,918.5C 869.816,903.656 862.483,893.823 848.5,889C 822.261,883.45 795.927,883.117 769.5,888C 745.653,891.253 722.486,897.087 700,905.5C 699.5,869.168 699.333,832.835 699.5,796.5C 735.261,788.63 771.261,783.297 807.5,780.5 Z M 852.5,977.5 C 858.167,977.5 863.833,977.5 869.5,977.5C 870.471,990.883 867.971,1003.55 862,1015.5C 853.921,1026.86 843.087,1030.69 829.5,1027C 818.047,1021.36 813.881,1012.19 817,999.5C 820.639,989.864 827.472,983.697 837.5,981C 842.646,979.875 847.646,978.709 852.5,977.5 Z"/></g>
<g><path style="opacity:0.992" fill="#fb6867" d="M 1193.5,780.5 C 1249.05,776.507 1301.05,788.007 1349.5,815C 1350,815.5 1350.5,816 1351,816.5C 1351.5,855.165 1351.67,893.832 1351.5,932.5C 1317.5,932.5 1283.5,932.5 1249.5,932.5C 1249.85,923.441 1249.35,914.441 1248,905.5C 1244.74,895.235 1237.9,888.735 1227.5,886C 1216.67,883.528 1206.34,884.861 1196.5,890C 1189.11,895.597 1184.95,903.097 1184,912.5C 1183.33,935.5 1183.33,958.5 1184,981.5C 1187.04,1000.21 1197.88,1011.38 1216.5,1015C 1240.51,1017 1264.51,1016.67 1288.5,1014C 1308.24,1012.01 1327.91,1009.51 1347.5,1006.5C 1347.5,1037.5 1347.5,1068.5 1347.5,1099.5C 1286.94,1121.06 1224.94,1126.56 1161.5,1116C 1087.48,1097.3 1047.31,1049.8 1041,973.5C 1037.42,937.354 1042.09,902.354 1055,868.5C 1074.28,828.097 1105.45,801.597 1148.5,789C 1163.44,785.069 1178.44,782.236 1193.5,780.5 Z"/></g>
<g><path style="opacity:0.993" fill="#fb6867" d="M 1521.5,780.5 C 1551.68,778.328 1581.34,781.161 1610.5,789C 1645.88,801.042 1671.04,824.209 1686,858.5C 1692.99,874.807 1697.33,891.807 1699,909.5C 1699.5,930.497 1699.67,951.497 1699.5,972.5C 1636.83,972.5 1574.17,972.5 1511.5,972.5C 1510.53,999.333 1523.53,1013.83 1550.5,1016C 1598.2,1018.26 1644.86,1012.42 1690.5,998.5C 1690.83,1029.84 1690.5,1061.17 1689.5,1092.5C 1655.14,1107.92 1619.14,1117.09 1581.5,1120C 1540.89,1124.87 1501.22,1120.87 1462.5,1108C 1404.99,1083.21 1373.82,1039.38 1369,976.5C 1364.59,937.4 1369.93,899.733 1385,863.5C 1405.44,824.751 1436.94,799.584 1479.5,788C 1493.47,784.507 1507.47,782.007 1521.5,780.5 Z M 1540.5,863.5 C 1552.41,862.675 1562.58,866.341 1571,874.5C 1576.6,884.743 1578.77,895.743 1577.5,907.5C 1555.5,907.5 1533.5,907.5 1511.5,907.5C 1510.21,896.243 1512.05,885.576 1517,875.5C 1523.23,868.158 1531.07,864.158 1540.5,863.5 Z"/></g>
<g><path style="opacity:0.992" fill="#fb6867" d="M 1999.5,985.5 C 1999.5,1002.83 1999.5,1020.17 1999.5,1037.5C 1991.68,1070.16 1972.35,1093.33 1941.5,1107C 1914.2,1117.66 1885.87,1122.49 1856.5,1121.5C 1808.88,1121.51 1762.55,1113.84 1717.5,1098.5C 1716.5,1069.51 1716.17,1040.51 1716.5,1011.5C 1748.17,1011.5 1779.83,1011.5 1811.5,1011.5C 1809.91,1030.2 1818.24,1041.04 1836.5,1044C 1843.5,1044.67 1850.5,1044.67 1857.5,1044C 1875.72,1040.4 1881.55,1029.9 1875,1012.5C 1871.46,1007.98 1866.96,1004.81 1861.5,1003C 1855.59,1001.02 1849.59,999.355 1843.5,998C 1825.06,994.871 1806.72,991.204 1788.5,987C 1740.11,971.942 1716.11,938.942 1716.5,888C 1716.25,849.476 1732.59,820.476 1765.5,801C 1787.72,789.263 1811.38,782.596 1836.5,781C 1879.53,777.629 1921.53,782.629 1962.5,796C 1969.19,798.429 1975.69,801.263 1982,804.5C 1982.5,831.831 1982.67,859.165 1982.5,886.5C 1952.83,886.5 1923.17,886.5 1893.5,886.5C 1893.79,865.794 1883.46,855.794 1862.5,856.5C 1852.69,856.069 1844.19,859.069 1837,865.5C 1831.29,878.699 1835.12,887.865 1848.5,893C 1853.77,894.869 1859.11,896.535 1864.5,898C 1883.89,901.744 1903.22,905.744 1922.5,910C 1963.66,919.659 1989.32,944.826 1999.5,985.5 Z"/></g>
<g><path style="opacity:0.981" fill="#fb6867" d="M -0.5,1291.5 C 13.1667,1291.5 26.8333,1291.5 40.5,1291.5C 40.5,1518.83 40.5,1746.17 40.5,1973.5C 679.833,1973.5 1319.17,1973.5 1958.5,1973.5C 1958.5,1746.17 1958.5,1518.83 1958.5,1291.5C 1972.17,1291.5 1985.83,1291.5 1999.5,1291.5C 1999.5,1533.17 1999.5,1774.83 1999.5,2016.5C 1332.83,2016.5 666.167,2016.5 -0.5,2016.5C -0.5,1774.83 -0.5,1533.17 -0.5,1291.5 Z"/></g>
</svg>
