<svg xmlns="http://www.w3.org/2000/svg" version="1.1" xmlns:xlink="http://www.w3.org/1999/xlink" xmlns:svgjs="http://svgjs.dev/svgjs" width="2000" height="1247" viewBox="0 0 2000 1247"><g transform="matrix(1,0,0,1,-1.2121212121212466,0.504858299595071)"><svg viewBox="0 0 396 247" data-background-color="#ebefd8" preserveAspectRatio="xMidYMid meet" height="1247" width="2000" xmlns="http://www.w3.org/2000/svg" xmlns:xlink="http://www.w3.org/1999/xlink"><g id="tight-bounds" transform="matrix(1,0,0,1,0.2400000000000091,-0.09999999999999432)"><svg viewBox="0 0 395.52 247.2" height="247.2" width="395.52"><g><svg></svg></g><g><svg viewBox="0 0 395.52 247.2" height="247.2" width="395.52"><g transform="matrix(1,0,0,1,75.54432,90.41501689996335)"><svg viewBox="0 0 244.43135999999998 66.36996620007328" height="66.36996620007328" width="244.43135999999998"><g><svg viewBox="0 0 244.43135999999998 66.36996620007328" height="66.36996620007328" width="244.43135999999998"><g><svg viewBox="0 0 244.43135999999998 66.36996620007328" height="66.36996620007328" width="244.43135999999998"><g><svg viewBox="0 0 244.43135999999998 66.36996620007328" height="66.36996620007328" width="244.43135999999998"><g id="textblocktransform"><svg viewBox="0 0 244.43135999999998 66.36996620007328" height="66.36996620007328" width="244.43135999999998" id="textblock"><g><svg viewBox="0 0 244.43135999999998 66.36996620007328" height="66.36996620007328" width="244.43135999999998"><g transform="matrix(1,0,0,1,0,0)"><svg width="244.43135999999998" viewBox="2.05 -25.65 136.44 37.05" height="66.36996620007328" data-palette-color="#d52814"><path d="M17.9-24.6L17.2-21.05Q15.1-21.7 13.48-21.93 11.85-22.15 10.5-22.15L10.5-22.15Q8.75-22.15 7.58-21.3 6.4-20.45 6.4-19.1L6.4-19.1Q6.45-17.9 7.45-17.05 8.45-16.2 9.78-15.53 11.1-14.85 12.73-14.05 14.35-13.25 15.78-12.25 17.2-11.25 18.1-9.85 19-8.45 19.05-6.5L19.05-6.5Q19-4.4 18.13-3.03 17.25-1.65 15.88-0.83 14.5 0 12.9 0.33 11.3 0.65 9.9 0.65L9.9 0.65Q8.1 0.65 6.18 0.45 4.25 0.25 2.05-0.4L2.05-0.4 2.8-4Q5.05-3.4 6.9-3.13 8.75-2.85 9.95-2.85L9.95-2.85Q10.85-2.85 11.73-3.05 12.6-3.25 13.3-3.63 14-4 14.43-4.6 14.85-5.2 14.85-5.95L14.85-5.95Q14.8-7.35 13.9-8.33 13-9.3 11.58-10.08 10.15-10.85 8.53-11.63 6.9-12.4 5.48-13.43 4.05-14.45 3.1-15.88 2.15-17.3 2.15-19.4L2.15-19.4Q2.15-20.9 2.93-22.08 3.7-23.25 4.93-24.03 6.15-24.8 7.63-25.23 9.1-25.65 10.5-25.65L10.5-25.65Q11.95-25.65 13.75-25.43 15.55-25.2 17.9-24.6L17.9-24.6ZM24.5 11.4L24.5-19.35Q24.5-21.15 24.25-24.7L24.25-24.7 27.95-25.2 28.4-22.5Q29.4-23.35 30.47-24.03 31.55-24.7 32.82-25.18 34.1-25.65 35.55-25.65L35.55-25.65Q37.6-25.65 39.42-24.95 41.25-24.25 42.62-22.7 44-21.15 44.8-18.68 45.6-16.2 45.6-12.6L45.6-12.6Q45.6-8.95 44.52-6.43 43.45-3.9 41.72-2.33 40-0.75 37.82-0.05 35.65 0.65 33.4 0.65L33.4 0.65Q31 0.6 28.5 0.05L28.5 0.05 28.5 10.9 24.5 11.4ZM33.4-2.85L33.4-2.85Q35.5-2.85 37-3.6 38.5-4.35 39.47-5.68 40.45-7 40.9-8.72 41.35-10.45 41.35-12.4L41.35-12.4Q41.35-14.15 41.02-15.9 40.7-17.65 39.97-19.03 39.25-20.4 38.05-21.28 36.85-22.15 35.1-22.15L35.1-22.15Q33.8-22.15 32.65-21.68 31.5-21.2 30.47-20.53 29.45-19.85 28.5-19L28.5-19 28.5-3.65Q29.05-3.45 29.72-3.28 30.4-3.1 31.32-2.98 32.25-2.85 33.4-2.85ZM65.44-5.85L65.44-11.55Q64.44-11.5 63.55-11.45 62.64-11.4 61.77-11.33 60.89-11.25 60.2-11.15L60.2-11.15Q56.59-10.7 55.09-9.58 53.59-8.45 53.59-6.35L53.59-6.35Q53.59-4.6 54.67-3.73 55.74-2.85 57.49-2.85L57.49-2.85Q59.89-2.85 61.77-3.68 63.64-4.5 65.44-5.85L65.44-5.85ZM65.89 0.4L65.39-2.35Q63.05-1 61.02-0.18 58.99 0.65 56.64 0.65L56.64 0.65Q53.3 0.65 51.32-0.98 49.34-2.6 49.34-6.35L49.34-6.35Q49.34-8.3 50.34-9.75 51.34-11.2 52.97-12.18 54.59-13.15 56.64-13.7 58.7-14.25 60.84-14.4L60.84-14.4Q61.74-14.5 63.2-14.58 64.64-14.65 65.44-14.7L65.44-14.7Q65.44-16.45 65.34-17.82 65.25-19.2 64.75-20.18 64.25-21.15 63.27-21.65 62.3-22.15 60.49-22.15L60.49-22.15Q59.05-22.15 57.7-21.98 56.34-21.8 55.3-21.6L55.3-21.6Q54.05-21.35 52.99-21.05L52.99-21.05 52.2-24.5Q53.45-24.8 54.89-25.05L54.89-25.05Q56.14-25.3 57.8-25.48 59.45-25.65 61.34-25.65L61.34-25.65Q63.89-25.65 65.47-24.9 67.05-24.15 67.92-22.88 68.8-21.6 69.12-19.98 69.44-18.35 69.44-16.55L69.44-16.55 69.44-4.55Q69.44-3.85 69.47-3.08 69.5-2.3 69.57-1.55 69.64-0.8 69.75 0L69.75 0 65.89 0.4ZM92.89-24.85L92.09-21.5Q91.24-21.7 89.74-21.93 88.24-22.15 86.69-22.15L86.69-22.15Q84.44-22.15 83.02-21.25 81.59-20.35 80.79-18.93 79.99-17.5 79.69-15.78 79.39-14.05 79.39-12.4L79.39-12.4Q79.39-9.85 80.04-8.03 80.69-6.2 81.77-5.05 82.84-3.9 84.24-3.38 85.64-2.85 87.19-2.85L87.19-2.85Q88.24-2.85 89.22-2.98 90.19-3.1 91.02-3.28 91.84-3.45 92.59-3.7L92.59-3.7 93.39-0.35Q92.34-0.05 91.44 0.15 90.54 0.35 89.32 0.5 88.09 0.65 86.69 0.65L86.69 0.65Q83.94 0.65 81.79-0.05 79.64-0.75 78.17-2.3 76.69-3.85 75.92-6.35 75.14-8.85 75.14-12.45L75.14-12.45Q75.14-15.95 76.12-18.48 77.09-21 78.69-22.58 80.29-24.15 82.37-24.9 84.44-25.65 86.69-25.65L86.69-25.65Q87.89-25.65 89.02-25.53 90.14-25.4 90.99-25.25L90.99-25.25Q91.99-25.05 92.89-24.85L92.89-24.85ZM115.59-3.95L116.34-0.6Q115.19-0.25 113.97 0 112.74 0.25 111.27 0.45 109.79 0.65 108.19 0.65L108.19 0.65Q105.69 0.65 103.54-0.05 101.39-0.75 99.79-2.3 98.19-3.85 97.27-6.33 96.34-8.8 96.34-12.4L96.34-12.4Q96.34-15.65 97.24-18.13 98.14-20.6 99.72-22.28 101.29-23.95 103.42-24.8 105.54-25.65 108.04-25.65L108.04-25.65Q110.49-25.65 112.29-24.7 114.09-23.75 115.27-22.13 116.44-20.5 117.02-18.32 117.59-16.15 117.59-13.75L117.59-13.75 116.84-11.55 100.69-11.55Q100.69-10 101.09-8.45 101.49-6.9 102.47-5.65 103.44-4.4 105.02-3.63 106.59-2.85 108.94-2.85L108.94-2.85Q110.44-2.85 111.69-3.03 112.94-3.2 113.87-3.43 114.79-3.65 115.59-3.95L115.59-3.95ZM100.84-14.75L113.44-14.75Q113.44-15.1 113.29-16.3 113.14-17.5 112.59-18.8 112.04-20.1 110.89-21.13 109.74-22.15 107.84-22.15L107.84-22.15Q105.74-22.15 104.39-21.28 103.04-20.4 102.24-19.2 101.44-18 101.14-16.75 100.84-15.5 100.84-14.75L100.84-14.75ZM137.34-24.6L136.64-21.05Q134.54-21.7 132.91-21.93 131.29-22.15 129.94-22.15L129.94-22.15Q128.19-22.15 127.01-21.3 125.84-20.45 125.84-19.1L125.84-19.1Q125.89-17.9 126.89-17.05 127.89-16.2 129.21-15.53 130.54-14.85 132.16-14.05 133.79-13.25 135.21-12.25 136.64-11.25 137.54-9.85 138.44-8.45 138.49-6.5L138.49-6.5Q138.44-4.4 137.56-3.03 136.69-1.65 135.31-0.83 133.94 0 132.34 0.33 130.74 0.65 129.34 0.65L129.34 0.65Q127.54 0.65 125.61 0.45 123.69 0.25 121.49-0.4L121.49-0.4 122.24-4Q124.49-3.4 126.34-3.13 128.19-2.85 129.39-2.85L129.39-2.85Q130.29-2.85 131.16-3.05 132.04-3.25 132.74-3.63 133.44-4 133.86-4.6 134.29-5.2 134.29-5.95L134.29-5.95Q134.24-7.35 133.34-8.33 132.44-9.3 131.01-10.08 129.59-10.85 127.96-11.63 126.34-12.4 124.91-13.43 123.49-14.45 122.54-15.88 121.59-17.3 121.59-19.4L121.59-19.4Q121.59-20.9 122.36-22.08 123.14-23.25 124.36-24.03 125.59-24.8 127.06-25.23 128.54-25.65 129.94-25.65L129.94-25.65Q131.39-25.65 133.19-25.43 134.99-25.2 137.34-24.6L137.34-24.6Z" opacity="1" transform="matrix(1,0,0,1,0,0)" fill="#d52814" class="wordmark-text-0" data-fill-palette-color="primary" id="text-0"></path></svg></g></svg></g></svg></g></svg></g></svg></g></svg></g></svg></g><path d="M203.184 84.415L203.184 26.841 9.666 26.841 9.666 220.359 203.184 220.359 203.184 162.785 197.198 162.785 197.198 214.373 15.652 214.373 15.652 32.827 197.198 32.827 197.198 84.415Z" fill="#d52814" stroke="transparent" data-fill-palette-color="tertiary"></path></svg></g><defs></defs></svg><rect width="395.52" height="247.2" fill="none" stroke="none" visibility="hidden"></rect></g></svg></g></svg>