<svg xmlns="http://www.w3.org/2000/svg" version="1.1" xmlns:xlink="http://www.w3.org/1999/xlink" xmlns:svgjs="http://svgjs.dev/svgjs" width="128" height="128" viewBox="0 0 128 128"><g transform="matrix(0.8046875,0,0,0.8046875,12.333870967741937,12.333870967741937)"><svg viewBox="0 0 155 155" data-background-color="#ebefd8" preserveAspectRatio="xMidYMid meet" height="128" width="128" xmlns="http://www.w3.org/2000/svg" xmlns:xlink="http://www.w3.org/1999/xlink"><g id="tight-bounds" transform="matrix(1,0,0,1,0.25,0.25)"><svg viewBox="0 0 154.5 154.5" height="154.5" width="154.5"><g><svg></svg></g><g><svg viewBox="0 0 154.5 154.5" height="154.5" width="154.5"><g transform="matrix(1,0,0,1,58.179213193916354,47.746371)"><svg viewBox="0 0 38.14157361216729 59.00725799999999" height="59.00725799999999" width="38.14157361216729"><g><svg viewBox="0 0 38.14157361216729 59.00725799999999" height="59.00725799999999" width="38.14157361216729"><g><svg viewBox="0 0 38.14157361216729 59.00725799999999" height="59.00725799999999" width="38.14157361216729"><g id="textblocktransform"><svg viewBox="0 0 38.14157361216729 59.00725799999999" height="59.00725799999999" width="38.14157361216729" id="textblock"><g><svg viewBox="0 0 38.14157361216729 59.00725799999999" height="59.00725799999999" width="38.14157361216729"><g transform="matrix(1,0,0,1,0,0)"><svg width="38.14157361216729" viewBox="2.05 -25.65 17 26.299999999999997" height="59.00725799999999" data-palette-color="#d52814"><path d="M17.9-24.6L17.2-21.05Q15.1-21.7 13.48-21.93 11.85-22.15 10.5-22.15L10.5-22.15Q8.75-22.15 7.58-21.3 6.4-20.45 6.4-19.1L6.4-19.1Q6.45-17.9 7.45-17.05 8.45-16.2 9.78-15.53 11.1-14.85 12.73-14.05 14.35-13.25 15.78-12.25 17.2-11.25 18.1-9.85 19-8.45 19.05-6.5L19.05-6.5Q19-4.4 18.13-3.03 17.25-1.65 15.88-0.83 14.5 0 12.9 0.33 11.3 0.65 9.9 0.65L9.9 0.65Q8.1 0.65 6.18 0.45 4.25 0.25 2.05-0.4L2.05-0.4 2.8-4Q5.05-3.4 6.9-3.13 8.75-2.85 9.95-2.85L9.95-2.85Q10.85-2.85 11.73-3.05 12.6-3.25 13.3-3.63 14-4 14.43-4.6 14.85-5.2 14.85-5.95L14.85-5.95Q14.8-7.35 13.9-8.33 13-9.3 11.58-10.08 10.15-10.85 8.53-11.63 6.9-12.4 5.48-13.43 4.05-14.45 3.1-15.88 2.15-17.3 2.15-19.4L2.15-19.4Q2.15-20.9 2.93-22.08 3.7-23.25 4.93-24.03 6.15-24.8 7.63-25.23 9.1-25.65 10.5-25.65L10.5-25.65Q11.95-25.65 13.75-25.43 15.55-25.2 17.9-24.6L17.9-24.6Z" opacity="1" transform="matrix(1,0,0,1,0,0)" fill="#d52814" class="wordmark-text-0" data-fill-palette-color="primary" id="text-0"></path></svg></g></svg></g></svg></g></svg></g></svg></g></svg></g><path d="M58.179 41.746L58.179 1 96.321 1 96.321 41.746 90.999 41.746 90.999 6.321 63.501 6.321 63.501 41.746 58.179 41.746M58.179 112.754L58.179 153.5 96.321 153.5 96.321 112.754 90.999 112.754 90.999 148.179 63.501 148.179 63.501 112.754 58.179 112.754" fill="#d52814" stroke="transparent" data-fill-palette-color="tertiary"></path></svg></g><defs></defs></svg><rect width="154.5" height="154.5" fill="none" stroke="none" visibility="hidden"></rect></g></svg></g></svg>